<svg xmlns="http://www.w3.org/2000/svg" version="1.1" xmlns:xlink="http://www.w3.org/1999/xlink" xmlns:svgjs="http://svgjs.dev/svgjs" width="2000" height="3454" viewBox="0 0 2000 3454"><g transform="matrix(1,0,0,1,0.4327164548159317,1.3983805668015066)"><svg viewBox="0 0 143 247" data-background-color="#ffffff" preserveAspectRatio="xMidYMid meet" height="3454" width="2000" xmlns="http://www.w3.org/2000/svg" xmlns:xlink="http://www.w3.org/1999/xlink"><g id="tight-bounds" transform="matrix(1,0,0,1,-0.03093922651933667,-0.09999999999999432)"><svg viewBox="0 0 143.06187845303867 247.2" height="247.2" width="143.06187845303867"><g><svg viewBox="0 0 143.06187845303867 247.2" height="247.2" width="143.06187845303867"><g><svg viewBox="0 0 143.06187845303867 247.2" height="247.2" width="143.06187845303867"><g id="textblocktransform"><svg viewBox="0 0 143.06187845303867 247.2" height="247.2" width="143.06187845303867" id="textblock"><g><svg viewBox="0 0 143.06187845303867 247.2" height="247.2" width="143.06187845303867"><g transform="matrix(1,0,0,1,0,0)"><svg width="143.06187845303867" viewBox="1.25 -35.6 20.95 36.2" height="247.2" data-palette-color="#ea3a36"><path d="M8.15-19.85L8.15-19.85 8.15-14.55Q8.15-10.45 8.55-9.53 8.95-8.6 9.93-7.58 10.9-6.55 11.65-6.55 12.4-6.55 13.55-7.6 14.7-8.65 15.15-9.5L15.15-9.5Q15.45-10.35 15.5-12L15.5-12 12.05-12 12.05-17.55 22-17.55 22 0 17.15 0 16.55-3.4Q13.1 0.6 11.45 0.6 9.8 0.6 6.23-2.68 2.65-5.95 1.8-8L1.8-8Q1.25-9.3 1.25-14.55L1.25-14.55 1.25-19.85Q1.25-26.1 2.25-27.85 3.25-29.6 6.53-32.6 9.8-35.6 11.4-35.6L11.4-35.6Q14.15-35.6 17.7-32.4 21.25-29.2 22.2-25.4L22.2-25.4 16.65-21.55Q15.85-24.25 14.1-26.55 12.35-28.85 11.65-28.85L11.65-28.85Q10.4-28.85 8.8-26.4L8.8-26.4Q8.15-25.45 8.15-19.85Z" opacity="1" transform="matrix(1,0,0,1,0,0)" fill="#ea3a36" class="wordmark-text-0" data-fill-palette-color="primary" id="text-0"></path></svg></g></svg></g></svg></g></svg></g></svg></g><defs></defs></svg><rect width="143.06187845303867" height="247.2" fill="none" stroke="none" visibility="hidden"></rect></g></svg></g></svg>